<svg id="Capa_1" data-name="Capa 1" xmlns="http://www.w3.org/2000/svg" viewBox="0 0 170.31 57.91"><defs><style>.cls-1{fill:#dc4c00;}.cls-2{fill:#001f60;}</style></defs><title>LOGO DN 3 OK</title><path class="cls-1" d="M132.06,64a3,3,0,0,1-.5-1.6,3.32,3.32,0,0,1,.7-2.1,4.25,4.25,0,0,1,2.3-1.4h0c2-.6,4.1-1.2,6.4-2.1s4.5-1.9,6.7-3a64.36,64.36,0,0,0,6.3-3.6,25.2,25.2,0,0,0,4.9-4.3,15.28,15.28,0,0,0,1.9-3,5,5,0,0,0,.6-2.4v-.2c0-2-1.6-3.5-4.9-4.4a5.66,5.66,0,0,0-1.8-.3c-.7,0-1.3-.1-2-.1-1,0-2,0-3,.1s-1.9.1-2.8.2a2.77,2.77,0,0,1-.9.1h-1.4a5.92,5.92,0,0,1-2.9-.7,4.36,4.36,0,0,1-1.6-1.7,2.41,2.41,0,0,1-.4-1.5,3,3,0,0,1,.6-1.8,6.14,6.14,0,0,1,1.9-1.7c1-.5,2.1-1.2,3.4-2s2.6-1.6,3.9-2.5,2.6-1.8,3.8-2.7a30.39,30.39,0,0,0,3.1-2.5c.8-.8,1.2-1.4,1.2-1.9,0-.3-.3-.5-.7-.6a10.9,10.9,0,0,0-2.6-.3H153a37.1,37.1,0,0,0-6.7.6,23.53,23.53,0,0,0-5.2,1.4,5.38,5.38,0,0,1-2.2.4,5,5,0,0,1-2.1-.5,4.84,4.84,0,0,1-1.6-1.3,3.34,3.34,0,0,1-.6-2.2,3.34,3.34,0,0,1,2.2-3.1,51.25,51.25,0,0,1,7.7-2,49.1,49.1,0,0,1,9.4-.9h1.4a19.19,19.19,0,0,1,7.4,1.5,9.15,9.15,0,0,1,3.9,3.1,4.52,4.52,0,0,1,.7,2.8c0,2.3-1.2,4.6-3.7,6.9a41.49,41.49,0,0,1-3.2,2.7c-1.3,1-2.8,2-4.3,3a9.86,9.86,0,0,1,2.4.3l2.7.6a14.42,14.42,0,0,1,6.8,4.3,11.07,11.07,0,0,1,2.3,6.4,13.1,13.1,0,0,1-1.1,5.2,18.09,18.09,0,0,1-3.3,5,46.9,46.9,0,0,1-5.7,5.2,63.29,63.29,0,0,1-7,4.4c-2.5,1.3-5.1,2.5-7.7,3.6s-5.2,1.9-7.6,2.6a11,11,0,0,1-1.8.2,4.48,4.48,0,0,1-2-.4,2.41,2.41,0,0,1-.8-.6A4.53,4.53,0,0,1,132.06,64Z" transform="translate(0.06 -8.24)"/><path class="cls-2" d="M59.56,13.56l19.2,25.6V13.26A5.33,5.33,0,0,1,80,9.56a4.6,4.6,0,0,1,3.3-1.3,4.3,4.3,0,0,1,3.4,1.3,5,5,0,0,1,1.2,3.7v34.2q0,5.7-5.4,5.7a9.86,9.86,0,0,1-2.4-.3,5.64,5.64,0,0,1-2-1.1c-.6-.5-1.2-1.1-1.8-1.7s-1.1-1.3-1.6-2l-18.6-25.4v25.5a5.35,5.35,0,0,1-1.3,3.8,4.67,4.67,0,0,1-3.4,1.3A4.3,4.3,0,0,1,48,52a5.11,5.11,0,0,1-1.3-3.7V14.66a8,8,0,0,1,.5-3.4,5.56,5.56,0,0,1,2.1-2.2,6.09,6.09,0,0,1,3.2-.8,6,6,0,0,1,4,1.4c.5.5,1,1.1,1.5,1.7Z" transform="translate(0.06 -8.24)"/><path class="cls-2" d="M125.86,47.56l-2.3-5.5h-20l-2.3,5.6a23,23,0,0,1-2.3,4.4,4.07,4.07,0,0,1-3.2,1.1,5,5,0,0,1-3.3-1.2,3.5,3.5,0,0,1-1.4-2.8,5.66,5.66,0,0,1,.3-1.8c.2-.6.6-1.5,1.1-2.6l12.6-28.2,1.3-2.9a12.75,12.75,0,0,1,1.6-2.8,6.25,6.25,0,0,1,2.2-1.8,9.15,9.15,0,0,1,6.9,0,5.78,5.78,0,0,1,2.3,1.8,7.22,7.22,0,0,1,1.4,2.4c.4.8.9,2,1.5,3.4l12.9,28a12.36,12.36,0,0,1,1.5,4.7,3.82,3.82,0,0,1-1.4,2.8,5.32,5.32,0,0,1-5.4.9,4.51,4.51,0,0,1-1.4-1,8.17,8.17,0,0,1-1.2-2A25.44,25.44,0,0,1,125.86,47.56Zm-19.7-12h14.7l-7.4-18Z" transform="translate(0.06 -8.24)"/><path class="cls-2" d="M6.06,8.86h13.1a42.05,42.05,0,0,1,8.7.8,16.07,16.07,0,0,1,6.6,3.1c5.2,3.9,7.7,9.8,7.7,17.7a29.45,29.45,0,0,1-.8,7.2,19.75,19.75,0,0,1-2.4,5.8,15.56,15.56,0,0,1-4,4.8,14.75,14.75,0,0,1-4.4,2.5,21.21,21.21,0,0,1-5.1,1.3,41.67,41.67,0,0,1-6.1.4H6.26a9.59,9.59,0,0,1-4.1-.7,3.55,3.55,0,0,1-1.8-2,13.42,13.42,0,0,1-.4-3.5v-32a5.26,5.26,0,0,1,1.5-4.1C2.36,9.26,4,8.86,6.06,8.86Zm3.9,7v29.6h7.6c1.7,0,3,0,3.9-.1a13.56,13.56,0,0,0,2.9-.6,7.94,7.94,0,0,0,2.6-1.3c3.3-2.5,5-6.8,5-12.9,0-4.3-.7-7.5-2.2-9.7a9.87,9.87,0,0,0-5.5-4.1,34.59,34.59,0,0,0-7.8-.9Z" transform="translate(0.06 -8.24)"/></svg>